{"glyphs":{"0":{"ha":817,"x_min":0,"x_max":0,"o":"m 278 122 b 283 71 278 103 276 86 b 308 33 289 57 296 44 b 350 8 321 22 333 14 b 408 0 368 3 386 0 b 499 33 453 0 474 11 b 539 122 522 54 539 83 l 539 997 b 499 1088 539 1036 522 1065 b 408 1121 474 1110 453 1121 b 350 1111 386 1121 368 1118 b 308 1088 333 1106 321 1097 b 283 1049 296 1076 289 1064 b 278 997 276 1035 278 1017 z m 468 124 b 453 78 468 106 464 90 b 407 60 442 65 428 60 b 364 78 386 60 374 65 b 350 124 353 90 350 106 l 350 997 b 364 1042 350 1015 353 1031 b 407 1061 374 1054 386 1061 b 453 1042 428 1061 442 1054 b 468 997 464 1031 468 1015 z "},"1":{"ha":742,"x_min":0,"x_max":0,"o":"m 278 1042 l 307 989 l 393 1042 l 393 0 l 464 0 l 464 1111 l 393 1111 z "},"2":{"ha":817,"x_min":0,"x_max":0,"o":"m 539 993 b 533 1044 539 1013 540 1031 b 508 1083 528 1060 521 1072 b 467 1107 497 1093 483 1101 b 408 1117 449 1113 431 1117 b 350 1107 386 1117 368 1113 b 308 1083 333 1101 321 1093 b 283 1044 296 1072 289 1060 b 278 993 276 1031 278 1013 l 278 771 l 350 771 l 350 993 b 364 1038 350 1011 353 1026 b 407 1057 374 1050 386 1057 b 408 1057 407 1057 408 1057 b 410 1057 408 1057 410 1057 b 453 1038 431 1057 443 1050 b 467 993 464 1026 467 1011 l 467 992 b 450 807 467 922 461 860 b 413 663 440 754 428 706 b 363 540 397 619 381 578 b 340 482 356 519 349 501 b 304 382 328 451 313 418 b 282 264 294 346 288 307 b 278 69 278 225 278 71 l 278 0 l 539 0 l 539 69 l 350 69 b 365 306 350 142 356 256 b 407 450 375 358 392 407 b 442 540 419 482 429 511 b 479 631 442 540 468 600 b 511 729 492 661 503 694 b 535 847 521 765 529 806 b 539 992 540 890 539 992 z "},"3":{"ha":817,"x_min":0,"x_max":0,"o":"m 539 997 b 533 1049 539 1017 540 1035 b 508 1088 528 1064 521 1076 b 467 1111 496 1097 483 1106 b 408 1121 449 1118 431 1121 b 350 1111 386 1121 368 1118 b 308 1088 333 1106 321 1097 b 283 1049 296 1076 289 1064 b 278 997 276 1035 278 1017 l 278 775 l 350 775 l 350 997 b 364 1042 350 1015 353 1031 b 407 1061 374 1054 386 1061 b 408 1061 407 1061 408 1061 b 410 1061 408 1061 410 1061 b 453 1042 431 1061 443 1054 b 467 997 464 1031 467 1015 l 467 688 b 453 649 467 672 463 658 b 407 629 442 636 428 629 b 400 631 404 629 403 629 l 400 568 b 407 569 403 569 404 569 b 453 550 428 569 442 563 b 467 510 463 539 467 525 l 467 124 b 453 78 467 106 464 90 b 410 60 443 65 431 60 b 408 60 410 60 408 60 b 407 60 408 60 407 60 b 364 78 386 60 374 65 b 350 124 353 90 350 106 l 350 382 l 278 382 l 278 142 b 283 72 278 119 279 85 b 308 33 290 57 296 44 b 350 8 321 22 333 14 b 408 0 368 3 386 0 b 467 8 431 0 449 3 b 508 33 483 14 496 22 b 533 72 521 44 526 57 b 539 151 539 88 539 133 l 539 513 b 499 596 536 549 521 575 b 494 600 497 597 496 599 b 499 603 496 601 497 601 b 539 685 521 624 536 650 z "},"4":{"ha":817,"x_min":0,"x_max":0,"o":"m 468 549 l 347 549 l 347 1111 l 278 1111 l 278 478 l 468 478 l 468 0 l 539 0 l 539 1111 l 468 1111 z "},"5":{"ha":817,"x_min":0,"x_max":0,"o":"m 539 1121 l 278 1121 l 278 578 l 407 578 b 453 558 428 578 442 571 b 467 519 463 547 467 535 l 467 124 b 453 78 467 106 463 90 b 410 60 443 65 431 60 b 408 60 410 60 408 60 b 407 60 408 60 407 60 b 364 78 386 60 374 65 b 350 124 353 90 350 106 l 350 382 l 278 382 l 278 151 b 283 72 278 133 278 88 b 308 33 290 57 296 44 b 350 8 319 22 333 14 b 408 0 367 3 386 0 b 467 8 431 0 449 3 b 508 33 483 14 496 22 b 532 72 521 44 526 57 b 539 151 539 88 539 133 l 539 513 b 499 604 539 551 522 582 b 414 638 475 625 454 636 l 350 638 l 350 1061 l 539 1061 z "},"6":{"ha":815,"x_min":0,"x_max":0,"o":"m 350 997 b 364 1042 350 1015 353 1031 b 407 1061 374 1054 386 1061 b 408 1061 407 1061 408 1061 b 410 1061 408 1061 410 1061 b 453 1042 431 1061 443 1054 b 467 997 464 1031 467 1015 l 467 782 l 539 782 l 539 997 b 533 1049 539 1017 540 1035 b 508 1088 528 1064 521 1076 b 467 1111 496 1097 483 1106 b 408 1121 449 1118 431 1121 b 350 1111 386 1121 368 1118 b 308 1088 333 1106 321 1097 b 283 1049 296 1076 289 1064 b 278 997 276 1035 278 1017 l 278 151 b 283 72 278 133 278 88 b 308 33 290 57 296 44 b 350 8 321 22 333 14 b 408 0 368 3 386 0 b 467 8 431 0 449 3 b 508 33 483 14 496 22 b 533 72 521 44 526 57 b 539 151 539 88 539 133 l 539 515 b 533 567 539 535 540 551 b 508 604 528 581 521 594 b 467 629 496 615 483 624 b 408 638 449 635 431 638 b 350 629 386 638 368 635 z m 350 514 b 364 560 350 532 353 547 b 407 578 374 572 386 578 b 408 578 407 578 408 578 b 410 578 408 578 410 578 b 453 560 431 578 443 572 b 467 514 464 547 467 532 l 467 124 b 453 78 467 106 464 90 b 410 60 443 65 431 60 b 408 60 410 60 408 60 b 407 60 408 60 407 60 b 364 78 386 60 374 65 b 350 124 353 90 350 106 z "},"7":{"ha":817,"x_min":0,"x_max":0,"o":"m 278 1053 l 458 1053 l 278 0 l 347 0 l 539 1111 l 278 1111 z "},"8":{"ha":817,"x_min":0,"x_max":0,"o":"m 539 997 b 533 1049 539 1017 540 1035 b 508 1088 528 1064 521 1076 b 467 1111 496 1097 483 1106 b 408 1121 449 1118 431 1121 b 350 1111 386 1121 368 1118 b 308 1088 333 1106 321 1097 b 283 1049 296 1076 289 1064 b 278 997 276 1035 278 1017 l 278 722 b 283 642 278 703 278 657 b 308 604 290 628 296 614 b 313 600 310 603 311 601 b 308 596 311 599 310 597 b 283 557 296 585 289 572 b 278 506 276 543 278 525 l 278 151 b 283 72 278 133 278 88 b 308 33 290 57 296 44 b 350 8 321 22 333 14 b 408 0 368 3 386 0 b 467 8 431 0 449 3 b 508 33 483 14 496 22 b 533 72 521 44 526 57 b 539 151 539 88 539 133 l 539 506 b 533 557 539 525 540 543 b 508 596 528 572 521 585 b 504 600 507 597 506 599 b 508 604 506 601 507 603 b 533 642 521 614 526 628 b 539 722 539 657 539 703 z m 467 693 b 453 649 467 675 464 660 b 410 629 443 636 431 629 b 408 629 410 629 408 629 b 407 629 408 629 407 629 b 364 649 386 629 374 636 b 350 693 353 660 350 675 l 350 997 b 364 1042 350 1015 353 1031 b 407 1061 374 1054 386 1061 b 408 1061 407 1061 408 1061 b 410 1061 408 1061 410 1061 b 453 1042 431 1061 443 1054 b 467 997 464 1031 467 1015 z m 350 506 b 364 550 350 524 353 539 b 407 569 374 563 386 569 b 408 569 407 569 408 569 b 410 569 408 569 410 569 b 453 550 431 569 443 563 b 467 506 464 539 467 524 l 467 124 b 453 78 467 106 464 90 b 410 60 443 65 431 60 b 408 60 410 60 408 60 b 407 60 408 60 407 60 b 364 78 386 60 374 65 b 350 124 353 90 350 106 z "},"9":{"ha":818,"x_min":0,"x_max":0,"o":"m 278 601 b 283 550 278 582 276 564 b 308 511 289 535 296 522 b 350 488 321 501 333 493 b 408 478 368 481 386 478 b 442 481 419 478 431 479 l 278 0 l 347 0 l 531 533 b 539 574 533 543 538 556 b 539 964 543 657 539 964 b 533 1044 539 983 539 1029 b 508 1083 526 1058 521 1072 b 467 1107 496 1093 483 1101 b 408 1117 449 1113 431 1117 b 350 1107 386 1117 368 1113 b 308 1083 333 1101 321 1093 b 283 1044 296 1072 290 1058 b 278 964 278 1029 278 983 z m 350 993 b 364 1038 350 1011 353 1026 b 407 1057 374 1050 386 1057 b 408 1057 407 1057 408 1057 b 410 1057 408 1057 410 1057 b 453 1038 431 1057 443 1050 b 467 993 464 1026 467 1011 l 467 601 b 453 557 467 583 464 568 b 410 538 443 544 431 538 b 408 538 410 538 408 538 b 407 538 408 538 407 538 b 364 557 386 538 374 544 b 350 601 353 568 350 583 z "},"A":{"ha":819,"x_min":0,"x_max":0,"o":"m 542 0 l 444 1113 l 375 1113 l 278 0 l 347 0 l 364 190 l 456 190 l 472 0 z m 410 711 l 450 260 l 371 260 z "},"Á":{"ha":819,"x_min":0,"x_max":0,"o":"m 536 1319 l 446 1189 l 379 1189 l 468 1319 z m 542 0 l 444 1113 l 375 1113 l 278 0 l 347 0 l 364 190 l 456 190 l 472 0 z m 410 711 l 450 260 l 371 260 z "},"Ä":{"ha":819,"x_min":0,"x_max":0,"o":"m 367 1210 b 317 1160 367 1182 344 1160 b 267 1210 289 1160 267 1182 b 317 1260 267 1238 289 1260 b 367 1210 344 1260 367 1238 z m 554 1210 b 504 1160 554 1182 532 1160 b 454 1210 476 1160 454 1182 b 504 1260 454 1238 476 1260 b 554 1210 532 1260 554 1238 z m 542 0 l 444 1113 l 375 1113 l 278 0 l 347 0 l 364 190 l 456 190 l 472 0 z m 410 711 l 450 260 l 371 260 z "},"À":{"ha":819,"x_min":0,"x_max":0,"o":"m 308 1318 l 397 1188 l 464 1188 l 375 1318 z m 542 0 l 444 1113 l 375 1113 l 278 0 l 347 0 l 364 190 l 456 190 l 472 0 z m 410 711 l 450 260 l 371 260 z "},"Ã":{"ha":819,"x_min":0,"x_max":0,"o":"m 513 1153 l 306 1153 l 306 1222 l 513 1222 z m 542 0 l 444 1113 l 375 1113 l 278 0 l 347 0 l 364 190 l 456 190 l 472 0 z m 410 711 l 450 260 l 371 260 z "},"B":{"ha":817,"x_min":0,"x_max":0,"o":"m 278 1111 l 278 0 l 401 0 b 501 33 447 0 476 11 b 539 124 525 56 539 85 l 539 450 b 501 540 539 489 525 519 b 497 544 500 542 499 543 b 501 549 499 546 500 547 b 539 633 524 569 538 597 b 539 988 539 636 539 988 b 501 1079 539 1026 525 1057 b 401 1111 476 1100 447 1111 z m 347 1053 l 401 1053 b 451 1033 421 1051 440 1046 b 468 988 461 1022 468 1007 l 468 639 b 467 629 468 638 467 631 b 451 593 465 615 460 603 b 401 574 440 581 421 575 l 347 574 z m 347 60 l 347 504 b 404 504 347 504 404 504 b 451 485 424 503 440 497 b 468 440 461 474 468 458 l 468 124 b 451 78 468 106 461 90 b 401 60 440 65 421 60 z "},"C":{"ha":817,"x_min":0,"x_max":0,"o":"m 468 124 b 453 78 468 106 464 90 b 407 60 442 65 428 60 b 364 78 386 60 374 65 b 350 124 353 90 350 106 l 350 997 b 364 1042 350 1015 353 1031 b 407 1061 374 1054 386 1061 b 453 1042 428 1061 442 1054 b 468 997 464 1031 468 1015 l 468 682 l 539 682 l 539 997 b 499 1088 539 1036 522 1065 b 408 1121 474 1110 453 1121 b 350 1111 386 1121 368 1117 b 308 1088 333 1106 321 1097 b 283 1049 296 1076 289 1064 b 278 997 276 1035 278 1017 l 278 122 b 283 71 278 103 276 86 b 308 33 289 57 296 44 b 350 8 321 22 333 14 b 408 0 368 3 386 0 b 499 33 453 0 474 11 b 539 122 522 54 539 83 l 539 439 l 468 439 z "},"Ç":{"ha":817,"x_min":0,"x_max":0,"o":"m 539 682 l 539 997 b 499 1088 539 1036 522 1065 b 408 1121 474 1110 453 1121 b 350 1111 386 1121 368 1117 b 308 1088 333 1106 321 1097 b 283 1049 296 1076 289 1064 b 278 997 276 1035 278 1017 l 278 122 b 283 71 278 103 276 86 b 308 33 289 57 296 44 b 350 8 321 22 333 14 b 382 1 360 6 371 3 l 382 -62 l 407 -62 b 431 -86 419 -62 431 -72 b 407 -108 431 -99 419 -108 l 382 -108 l 382 -158 b 407 -162 390 -161 399 -162 b 485 -86 450 -162 485 -128 b 433 -12 485 -51 463 -24 l 433 1 b 499 33 461 6 479 15 b 539 122 522 54 539 83 l 539 439 l 468 439 l 468 124 b 453 78 468 106 464 90 b 407 60 442 65 428 60 b 364 78 386 60 374 65 b 350 124 353 90 350 106 l 350 997 b 364 1042 350 1015 353 1031 b 407 1061 374 1054 386 1061 b 453 1042 428 1061 442 1054 b 468 997 464 1031 468 1015 l 468 682 z "},"D":{"ha":817,"x_min":0,"x_max":0,"o":"m 278 1111 l 278 0 l 401 0 b 501 33 447 0 476 11 b 539 124 525 56 539 85 l 539 988 b 501 1078 539 1026 525 1057 b 401 1111 476 1100 447 1111 z m 347 60 l 347 1053 l 401 1053 b 451 1033 421 1051 440 1046 b 468 988 461 1022 468 1007 l 468 124 b 451 78 468 106 461 90 b 401 60 440 65 421 60 z "},"E":{"ha":778,"x_min":0,"x_max":0,"o":"m 500 1042 l 500 1113 l 278 1113 l 278 0 l 500 0 l 500 69 l 347 69 l 347 504 l 447 504 l 447 574 l 347 574 l 347 1042 z "},"É":{"ha":778,"x_min":0,"x_max":0,"o":"m 515 1318 l 447 1318 l 358 1188 l 425 1188 z m 278 1113 l 278 0 l 500 0 l 500 69 l 347 69 l 347 504 l 447 504 l 447 574 l 347 574 l 347 1042 l 500 1042 l 500 1113 z "},"Ë":{"ha":778,"x_min":0,"x_max":0,"o":"m 317 1160 b 367 1210 344 1160 367 1182 b 317 1260 367 1238 344 1260 b 267 1210 289 1260 267 1238 b 317 1160 267 1182 289 1160 z m 504 1260 b 454 1210 476 1260 454 1238 b 504 1160 454 1182 476 1160 b 554 1210 532 1160 554 1182 b 504 1260 554 1238 532 1260 z m 278 1113 l 278 0 l 500 0 l 500 69 l 347 69 l 347 504 l 447 504 l 447 574 l 347 574 l 347 1042 l 500 1042 l 500 1113 z "},"È":{"ha":778,"x_min":0,"x_max":0,"o":"m 433 1188 l 344 1318 l 278 1318 l 367 1188 z m 500 1042 l 500 1113 l 278 1113 l 278 0 l 500 0 l 500 69 l 347 69 l 347 504 l 447 504 l 447 574 l 347 574 l 347 1042 z "},"F":{"ha":778,"x_min":0,"x_max":0,"o":"m 500 1113 l 278 1113 l 278 0 l 347 0 l 347 504 l 447 504 l 447 574 l 347 574 l 347 1042 l 500 1042 z "},"G":{"ha":817,"x_min":0,"x_max":0,"o":"m 539 682 l 539 997 b 499 1088 539 1036 522 1065 b 408 1121 474 1110 453 1121 b 350 1111 386 1121 368 1117 b 308 1088 333 1106 321 1097 b 283 1049 296 1076 289 1064 b 278 997 276 1035 278 1017 l 278 122 b 283 71 278 103 276 86 b 308 33 289 57 296 44 b 350 8 321 22 333 14 b 408 0 368 3 386 0 b 499 33 453 0 474 11 b 539 122 522 54 539 83 l 539 529 l 424 529 l 424 458 l 468 458 l 468 124 b 453 78 468 106 464 90 b 407 60 442 65 428 60 b 364 78 386 60 374 65 b 350 124 353 90 350 106 l 350 997 b 364 1042 350 1015 353 1031 b 407 1061 374 1054 386 1061 b 453 1042 428 1061 442 1054 b 468 997 464 1031 468 1015 l 468 682 z "},"H":{"ha":817,"x_min":0,"x_max":0,"o":"m 469 525 l 347 525 l 347 1113 l 278 1113 l 278 0 l 347 0 l 347 454 l 469 454 l 469 0 l 539 0 l 539 1113 l 469 1113 z "},"I":{"ha":625,"x_min":0,"x_max":0,"o":"m 278 0 l 278 1113 l 347 1113 l 347 0 z "},"Í":{"ha":625,"x_min":0,"x_max":0,"o":"m 436 1318 l 346 1188 l 279 1188 l 368 1318 z m 278 0 l 278 1113 l 347 1113 l 347 0 z "},"Ï":{"ha":625,"x_min":0,"x_max":0,"o":"m 271 1210 b 221 1160 271 1182 249 1160 b 171 1210 193 1160 171 1182 b 221 1260 171 1238 193 1260 b 271 1210 249 1260 271 1238 z m 458 1210 b 408 1160 458 1182 436 1160 b 358 1210 381 1160 358 1182 b 408 1260 358 1238 381 1260 b 458 1210 436 1260 458 1238 z m 278 0 l 278 1113 l 347 1113 l 347 0 z "},"Ì":{"ha":625,"x_min":0,"x_max":0,"o":"m 186 1318 l 275 1188 l 342 1188 l 253 1318 z m 278 0 l 278 1113 l 347 1113 l 347 0 z "},"J":{"ha":817,"x_min":0,"x_max":0,"o":"m 539 117 b 533 65 539 97 540 81 b 508 28 528 51 521 39 b 467 3 497 17 483 8 b 408 -6 450 -3 431 -6 b 318 28 364 -6 343 6 b 278 117 294 49 278 78 l 278 503 l 350 503 l 350 118 b 364 72 350 100 353 85 b 410 54 375 60 389 54 b 453 72 431 54 443 60 b 467 118 464 85 467 100 l 467 1111 l 539 1111 z "},"K":{"ha":836,"x_min":0,"x_max":0,"o":"m 558 1113 l 489 1113 l 372 574 l 347 574 l 347 1113 l 278 1113 l 278 0 l 347 0 l 347 504 l 372 504 l 489 0 l 558 0 l 435 538 l 442 574 z "},"L":{"ha":775,"x_min":0,"x_max":0,"o":"m 347 1113 l 278 1113 l 278 0 l 497 0 l 497 69 l 347 69 z "},"M":{"ha":899,"x_min":0,"x_max":0,"o":"m 450 285 l 347 1113 l 278 1113 l 278 0 l 347 0 l 347 542 l 414 0 l 485 0 l 551 542 l 551 0 l 621 0 l 621 1113 l 551 1113 z "},"N":{"ha":817,"x_min":0,"x_max":0,"o":"m 469 408 l 347 1113 l 278 1113 l 278 0 l 347 0 l 347 704 l 469 0 l 539 0 l 539 1113 l 469 1113 z "},"Ñ":{"ha":817,"x_min":0,"x_max":0,"o":"m 306 1164 l 513 1164 l 513 1221 l 306 1221 z m 469 408 l 347 1113 l 278 1113 l 278 0 l 347 0 l 347 704 l 469 0 l 539 0 l 539 1113 l 469 1113 z "},"O":{"ha":817,"x_min":0,"x_max":0,"o":"m 278 118 b 283 67 278 99 276 82 b 308 29 289 53 296 40 b 350 4 321 18 333 10 b 408 -4 368 -1 386 -4 b 499 29 453 -4 474 7 b 539 118 522 50 539 79 l 539 993 b 499 1083 539 1032 522 1061 b 408 1117 474 1106 453 1117 b 350 1107 386 1117 368 1114 b 308 1083 333 1101 321 1093 b 283 1044 296 1072 289 1060 b 278 993 276 1031 278 1013 z m 468 119 b 453 74 468 101 464 86 b 407 56 442 61 428 56 b 364 74 386 56 374 61 b 350 119 353 86 350 101 l 350 993 b 364 1038 350 1011 353 1026 b 407 1057 374 1050 386 1057 b 453 1038 428 1057 442 1050 b 468 993 464 1026 468 1011 z "},"Ó":{"ha":817,"x_min":0,"x_max":0,"o":"m 544 1318 l 454 1188 l 388 1188 l 476 1318 z m 278 118 b 283 67 278 99 276 82 b 308 29 289 53 296 40 b 350 4 321 18 333 10 b 408 -4 368 -1 386 -4 b 499 29 453 -4 474 7 b 539 118 522 50 539 79 l 539 993 b 499 1083 539 1032 522 1061 b 408 1117 474 1106 453 1117 b 350 1107 386 1117 368 1114 b 308 1083 333 1101 321 1093 b 283 1044 296 1072 289 1060 b 278 993 276 1031 278 1013 z m 468 119 b 453 74 468 101 464 86 b 407 56 442 61 428 56 b 364 74 386 56 374 61 b 350 119 353 86 350 101 l 350 993 b 364 1038 350 1011 353 1026 b 407 1057 374 1050 386 1057 b 453 1038 428 1057 442 1050 b 468 993 464 1026 468 1011 z "},"Ö":{"ha":817,"x_min":0,"x_max":0,"o":"m 367 1210 b 317 1160 367 1182 344 1160 b 267 1210 289 1160 267 1182 b 317 1260 267 1238 289 1260 b 367 1210 344 1260 367 1238 z m 554 1210 b 504 1160 554 1182 532 1160 b 454 1210 476 1160 454 1182 b 504 1260 454 1238 476 1260 b 554 1210 532 1260 554 1238 z m 278 118 b 283 67 278 99 276 82 b 308 29 289 53 296 40 b 350 4 321 18 333 10 b 408 -4 368 -1 386 -4 b 499 29 453 -4 474 7 b 539 118 522 50 539 79 l 539 993 b 499 1083 539 1032 522 1061 b 408 1117 474 1106 453 1117 b 350 1107 386 1117 368 1114 b 308 1083 333 1101 321 1093 b 283 1044 296 1072 289 1060 b 278 993 276 1031 278 1013 z m 468 119 b 453 74 468 101 464 86 b 407 56 442 61 428 56 b 364 74 386 56 374 61 b 350 119 353 86 350 101 l 350 993 b 364 1038 350 1011 353 1026 b 407 1057 374 1050 386 1057 b 453 1038 428 1057 442 1050 b 468 993 464 1026 468 1011 z "},"Ò":{"ha":817,"x_min":0,"x_max":0,"o":"m 278 1318 l 367 1188 l 433 1188 l 344 1318 z m 278 118 b 283 67 278 99 276 82 b 308 29 289 53 296 40 b 350 4 321 18 333 10 b 408 -4 368 -1 386 -4 b 499 29 453 -4 474 7 b 539 118 522 50 539 79 l 539 993 b 499 1083 539 1032 522 1061 b 408 1117 474 1106 453 1117 b 350 1107 386 1117 368 1114 b 308 1083 333 1101 321 1093 b 283 1044 296 1072 289 1060 b 278 993 276 1031 278 1013 z m 468 119 b 453 74 468 101 464 86 b 407 56 442 61 428 56 b 364 74 386 56 374 61 b 350 119 353 86 350 101 l 350 993 b 364 1038 350 1011 353 1026 b 407 1057 374 1050 386 1057 b 453 1038 428 1057 442 1050 b 468 993 464 1026 468 1011 z "},"Ø":{"ha":1014,"x_min":0,"x_max":0,"o":"m 736 817 l 685 863 l 639 803 l 639 997 b 599 1088 639 1036 622 1065 b 508 1121 575 1110 553 1121 b 450 1111 486 1121 468 1118 b 408 1088 433 1106 421 1097 b 383 1049 396 1076 389 1064 b 378 997 376 1035 378 1017 l 378 465 l 278 336 l 331 292 l 378 353 l 378 122 b 383 71 378 103 376 86 b 408 33 389 57 396 44 b 450 8 421 22 433 14 b 508 0 468 3 486 0 b 599 33 553 0 575 11 b 639 122 622 54 639 83 l 639 690 z m 450 997 b 464 1042 450 1015 454 1031 b 507 1061 474 1054 486 1061 b 553 1042 528 1061 543 1054 b 568 997 564 1031 568 1015 l 568 711 l 450 558 z m 568 124 b 553 78 568 106 564 90 b 507 60 543 65 528 60 b 464 78 486 60 474 65 b 450 124 454 90 450 106 l 450 446 l 568 599 z "},"Õ":{"ha":817,"x_min":0,"x_max":0,"o":"m 513 1153 l 306 1153 l 306 1222 l 513 1222 z m 278 118 b 283 67 278 99 276 82 b 308 29 289 53 296 40 b 350 4 321 18 333 10 b 408 -4 368 -1 386 -4 b 499 29 453 -4 474 7 b 539 118 522 50 539 79 l 539 993 b 499 1083 539 1032 522 1061 b 408 1117 474 1106 453 1117 b 350 1107 386 1117 368 1114 b 308 1083 333 1101 321 1093 b 283 1044 296 1072 289 1060 b 278 993 276 1031 278 1013 z m 468 119 b 453 74 468 101 464 86 b 407 56 442 61 428 56 b 364 74 386 56 374 61 b 350 119 353 86 350 101 l 350 993 b 364 1038 350 1011 353 1026 b 407 1057 374 1050 386 1057 b 453 1038 428 1057 442 1050 b 468 993 464 1026 468 1011 z "},"P":{"ha":817,"x_min":0,"x_max":0,"o":"m 278 1111 l 278 0 l 347 0 l 347 504 l 401 504 b 501 538 447 504 476 515 b 539 628 525 560 539 589 l 539 988 b 501 1078 539 1026 525 1057 b 401 1111 476 1100 447 1111 z m 468 639 b 451 593 468 619 461 604 b 401 574 440 581 421 575 l 347 574 l 347 1053 l 401 1053 b 451 1033 421 1051 440 1046 b 468 988 461 1022 468 1007 z "},"Q":{"ha":864,"x_min":0,"x_max":0,"o":"m 529 68 b 539 118 535 83 539 99 l 539 993 b 499 1082 539 1032 522 1061 b 408 1115 474 1104 453 1115 b 350 1107 386 1115 368 1113 b 308 1082 333 1101 321 1093 b 283 1044 296 1071 289 1058 b 278 993 276 1029 278 1013 l 278 118 b 283 67 278 99 276 81 b 308 29 289 51 296 39 b 350 4 321 18 333 10 b 408 -6 368 -1 386 -6 b 492 22 449 -6 471 4 l 550 -22 l 586 25 z m 350 992 b 364 1038 350 1010 353 1025 b 407 1056 374 1050 386 1056 b 453 1038 428 1056 442 1050 b 468 992 464 1025 468 1010 l 468 118 b 453 74 468 100 464 85 b 407 54 442 61 428 54 b 364 74 386 54 374 61 b 350 118 353 85 350 100 z "},"R":{"ha":817,"x_min":0,"x_max":0,"o":"m 539 988 b 501 1078 539 1026 525 1057 b 401 1111 476 1100 447 1111 l 278 1111 l 278 0 l 347 0 l 347 504 b 404 504 347 504 404 504 b 451 485 424 503 440 497 b 468 440 461 474 468 458 l 468 0 l 539 0 l 539 450 b 501 540 539 489 525 519 b 497 544 500 542 499 543 b 501 549 499 546 500 547 b 539 639 525 569 539 600 z m 401 1053 b 451 1033 421 1051 440 1046 b 468 988 461 1022 468 1007 l 468 639 b 451 593 468 619 461 604 b 401 574 440 581 421 575 l 347 574 l 347 1053 z "},"S":{"ha":858,"x_min":0,"x_max":0,"o":"m 581 982 b 543 1074 581 1021 567 1051 b 443 1107 518 1096 488 1107 b 382 1097 422 1107 400 1103 b 338 1072 365 1092 350 1083 b 310 1035 326 1063 317 1049 b 300 982 303 1019 300 1001 b 304 838 300 929 299 881 b 328 719 310 796 318 756 b 360 621 336 685 347 651 b 397 531 372 590 397 531 b 432 440 410 501 419 472 b 469 296 447 397 460 349 b 485 110 481 243 485 181 b 469 64 485 92 481 76 b 418 46 460 51 439 46 b 365 64 397 46 376 51 b 350 110 356 76 350 92 l 350 332 l 278 332 l 278 110 b 315 19 278 71 292 42 b 415 -14 340 -3 371 -14 b 476 -6 438 -14 458 -11 b 521 19 493 1 508 10 b 549 58 532 31 542 43 b 558 110 556 74 558 90 b 554 254 558 164 560 213 b 531 372 549 297 540 336 b 499 472 522 408 511 442 b 476 531 490 492 483 510 b 426 653 458 568 442 610 b 389 797 411 696 399 744 b 374 982 378 850 374 913 b 389 1028 374 1001 378 1017 b 440 1047 399 1040 419 1047 b 493 1028 461 1047 482 1040 b 510 982 503 1017 510 1001 l 510 761 l 581 761 z "},"T":{"ha":817,"x_min":0,"x_max":0,"o":"m 278 1111 l 278 1042 l 374 1042 l 374 0 l 443 0 l 443 1042 l 539 1042 l 539 1111 z "},"U":{"ha":817,"x_min":0,"x_max":0,"o":"m 468 121 b 453 75 468 103 464 88 b 407 57 442 63 428 57 b 364 75 386 57 374 63 b 350 121 353 88 350 103 l 350 1114 l 278 1114 l 278 119 b 283 68 278 100 276 83 b 308 31 289 54 296 42 b 350 6 321 19 333 11 b 408 -3 368 0 386 -3 b 499 31 453 -3 474 8 b 539 119 522 51 539 81 l 539 1114 l 468 1114 z "},"Ú":{"ha":817,"x_min":0,"x_max":0,"o":"m 538 1318 l 447 1188 l 381 1188 l 469 1318 z m 468 121 b 453 75 468 103 464 88 b 407 57 442 63 428 57 b 364 75 386 57 374 63 b 350 121 353 88 350 103 l 350 1114 l 278 1114 l 278 119 b 283 68 278 100 276 83 b 308 31 289 54 296 42 b 350 6 321 19 333 11 b 408 -3 368 0 386 -3 b 499 31 453 -3 474 8 b 539 119 522 51 539 81 l 539 1114 l 468 1114 z "},"Ü":{"ha":817,"x_min":0,"x_max":0,"o":"m 367 1251 b 317 1201 367 1224 344 1201 b 267 1251 289 1201 267 1224 b 317 1301 267 1279 289 1301 b 367 1251 344 1301 367 1279 z m 554 1251 b 504 1201 554 1224 532 1201 b 454 1251 476 1201 454 1224 b 504 1301 454 1279 476 1301 b 554 1251 532 1301 554 1279 z m 468 121 b 453 75 468 103 464 88 b 407 57 442 63 428 57 b 364 75 386 57 374 63 b 350 121 353 88 350 103 l 350 1114 l 278 1114 l 278 119 b 283 68 278 100 276 83 b 308 31 289 54 296 42 b 350 6 321 19 333 11 b 408 -3 368 0 386 -3 b 499 31 453 -3 474 8 b 539 119 522 51 539 81 l 539 1114 l 468 1114 z "},"Ù":{"ha":817,"x_min":0,"x_max":0,"o":"m 278 1318 l 367 1188 l 433 1188 l 344 1318 z m 468 121 b 453 75 468 103 464 88 b 407 57 442 63 428 57 b 364 75 386 57 374 63 b 350 121 353 88 350 103 l 350 1114 l 278 1114 l 278 119 b 283 68 278 100 276 83 b 308 31 289 54 296 42 b 350 6 321 19 333 11 b 408 -3 368 0 386 -3 b 499 31 453 -3 474 8 b 539 119 522 51 539 81 l 539 1114 l 468 1114 z "},"V":{"ha":853,"x_min":0,"x_max":0,"o":"m 506 1113 l 426 339 l 347 1113 l 278 1113 l 392 0 l 461 0 l 575 1113 z "},"W":{"ha":1050,"x_min":0,"x_max":0,"o":"m 703 1113 l 626 364 l 560 1113 l 490 1113 l 424 364 l 347 1113 l 278 1113 l 392 0 l 461 0 l 525 721 l 589 0 l 658 0 l 772 1113 z "},"Ẃ":{"ha":1050,"x_min":0,"x_max":0,"o":"m 656 1318 l 588 1318 l 499 1188 l 565 1188 z m 703 1113 l 626 364 l 560 1113 l 490 1113 l 424 364 l 347 1113 l 278 1113 l 392 0 l 461 0 l 525 721 l 589 0 l 658 0 l 772 1113 z "},"Ẅ":{"ha":1050,"x_min":0,"x_max":0,"o":"m 433 1160 b 483 1210 461 1160 483 1182 b 433 1260 483 1238 461 1260 b 383 1210 406 1260 383 1238 b 433 1160 383 1182 406 1160 z m 621 1160 b 671 1210 649 1160 671 1182 b 621 1260 671 1238 649 1260 b 571 1210 593 1260 571 1238 b 621 1160 571 1182 593 1160 z m 703 1113 l 626 364 l 560 1113 l 490 1113 l 424 364 l 347 1113 l 278 1113 l 392 0 l 461 0 l 525 721 l 589 0 l 658 0 l 772 1113 z "},"Ẁ":{"ha":1050,"x_min":0,"x_max":0,"o":"m 575 1188 l 486 1318 l 419 1318 l 508 1188 z m 703 1113 l 626 364 l 560 1113 l 490 1113 l 424 364 l 347 1113 l 278 1113 l 392 0 l 461 0 l 525 721 l 589 0 l 658 0 l 772 1113 z "},"X":{"ha":853,"x_min":0,"x_max":0,"o":"m 506 1113 l 426 726 l 347 1113 l 278 1113 l 392 556 l 278 0 l 347 0 l 426 385 l 506 0 l 575 0 l 461 556 l 575 1113 z "},"Y":{"ha":853,"x_min":0,"x_max":0,"o":"m 506 1113 l 426 726 l 347 1113 l 278 1113 l 392 557 l 392 0 l 461 0 l 461 556 l 575 1113 z "},"Ý":{"ha":853,"x_min":0,"x_max":0,"o":"m 546 1318 l 478 1318 l 389 1188 l 456 1188 z m 506 1113 l 426 726 l 347 1113 l 278 1113 l 392 557 l 392 0 l 461 0 l 461 556 l 575 1113 z "},"Ÿ":{"ha":853,"x_min":0,"x_max":0,"o":"m 338 1160 b 388 1210 365 1160 388 1182 b 338 1260 388 1238 365 1260 b 288 1210 310 1260 288 1238 b 338 1160 288 1182 310 1160 z m 525 1160 b 575 1210 553 1160 575 1182 b 525 1260 575 1238 553 1260 b 475 1210 497 1260 475 1238 b 525 1160 475 1182 497 1160 z m 426 726 l 347 1113 l 278 1113 l 392 557 l 392 0 l 461 0 l 461 556 l 575 1113 l 506 1113 z "},"Ỳ":{"ha":853,"x_min":0,"x_max":0,"o":"m 468 1188 l 379 1318 l 313 1318 l 401 1188 z m 506 1113 l 426 726 l 347 1113 l 278 1113 l 392 557 l 392 0 l 461 0 l 461 556 l 575 1113 z "},"Z":{"ha":817,"x_min":0,"x_max":0,"o":"m 539 1113 l 278 1113 l 278 1042 l 457 1042 l 278 0 l 539 0 l 539 69 l 360 69 l 539 1111 z "},"a":{"ha":819,"x_min":0,"x_max":0,"o":"m 542 0 l 444 1113 l 375 1113 l 278 0 l 347 0 l 364 190 l 456 190 l 472 0 z m 410 711 l 450 260 l 371 260 z "},"á":{"ha":819,"x_min":0,"x_max":0,"o":"m 536 1319 l 446 1189 l 379 1189 l 468 1319 z m 542 0 l 444 1113 l 375 1113 l 278 0 l 347 0 l 364 190 l 456 190 l 472 0 z m 410 711 l 450 260 l 371 260 z "},"ä":{"ha":819,"x_min":0,"x_max":0,"o":"m 367 1210 b 317 1160 367 1182 344 1160 b 267 1210 289 1160 267 1182 b 317 1260 267 1238 289 1260 b 367 1210 344 1260 367 1238 z m 554 1210 b 504 1160 554 1182 532 1160 b 454 1210 476 1160 454 1182 b 504 1260 454 1238 476 1260 b 554 1210 532 1260 554 1238 z m 542 0 l 444 1113 l 375 1113 l 278 0 l 347 0 l 364 190 l 456 190 l 472 0 z m 410 711 l 450 260 l 371 260 z "},"à":{"ha":819,"x_min":0,"x_max":0,"o":"m 278 1318 l 367 1188 l 433 1188 l 344 1318 z m 542 0 l 444 1113 l 375 1113 l 278 0 l 347 0 l 364 190 l 456 190 l 472 0 z m 410 711 l 450 260 l 371 260 z "},"ã":{"ha":819,"x_min":0,"x_max":0,"o":"m 513 1153 l 306 1153 l 306 1222 l 513 1222 z m 542 0 l 444 1113 l 375 1113 l 278 0 l 347 0 l 364 190 l 456 190 l 472 0 z m 410 711 l 450 260 l 371 260 z "},"b":{"ha":817,"x_min":0,"x_max":0,"o":"m 278 1111 l 278 0 l 401 0 b 501 33 447 0 476 11 b 539 124 525 56 539 85 l 539 450 b 501 540 539 489 525 519 b 497 544 500 542 499 543 b 501 549 499 546 500 547 b 539 633 524 569 538 597 b 539 988 539 636 539 988 b 501 1079 539 1026 525 1057 b 401 1111 476 1100 447 1111 z m 347 1053 l 401 1053 b 451 1033 421 1051 440 1046 b 468 988 461 1022 468 1007 l 468 639 b 467 629 468 638 467 631 b 451 593 465 615 460 603 b 401 574 440 581 421 575 l 347 574 z m 347 60 l 347 504 b 404 504 347 504 404 504 b 451 485 424 503 440 497 b 468 440 461 474 468 458 l 468 124 b 451 78 468 106 461 90 b 401 60 440 65 421 60 z "},"c":{"ha":817,"x_min":0,"x_max":0,"o":"m 468 124 b 453 78 468 106 464 90 b 407 60 442 65 428 60 b 364 78 386 60 374 65 b 350 124 353 90 350 106 l 350 997 b 364 1042 350 1015 353 1031 b 407 1061 374 1054 386 1061 b 453 1042 428 1061 442 1054 b 468 997 464 1031 468 1015 l 468 682 l 539 682 l 539 997 b 499 1088 539 1036 522 1065 b 408 1121 474 1110 453 1121 b 350 1111 386 1121 368 1117 b 308 1088 333 1106 321 1097 b 283 1049 296 1076 289 1064 b 278 997 276 1035 278 1017 l 278 122 b 283 71 278 103 276 86 b 308 33 289 57 296 44 b 350 8 321 22 333 14 b 408 0 368 3 386 0 b 499 33 453 0 474 11 b 539 122 522 54 539 83 l 539 439 l 468 439 z "},"ç":{"ha":817,"x_min":0,"x_max":0,"o":"m 539 682 l 539 997 b 499 1088 539 1036 522 1065 b 408 1121 474 1110 453 1121 b 350 1111 386 1121 368 1117 b 308 1088 333 1106 321 1097 b 283 1049 296 1076 289 1064 b 278 997 276 1035 278 1017 l 278 122 b 283 71 278 103 276 86 b 308 33 289 57 296 44 b 350 8 321 22 333 14 b 382 1 360 6 371 3 l 382 -62 l 407 -62 b 431 -86 419 -62 431 -72 b 407 -108 431 -99 419 -108 l 382 -108 l 382 -158 b 407 -162 390 -161 399 -162 b 485 -86 450 -162 485 -128 b 433 -12 485 -51 463 -24 l 433 1 b 499 33 461 6 479 15 b 539 122 522 54 539 83 l 539 439 l 468 439 l 468 124 b 453 78 468 106 464 90 b 407 60 442 65 428 60 b 364 78 386 60 374 65 b 350 124 353 90 350 106 l 350 997 b 364 1042 350 1015 353 1031 b 407 1061 374 1054 386 1061 b 453 1042 428 1061 442 1054 b 468 997 464 1031 468 1015 l 468 682 z "},"d":{"ha":817,"x_min":0,"x_max":0,"o":"m 278 1111 l 278 0 l 401 0 b 501 33 447 0 476 11 b 539 124 525 56 539 85 l 539 988 b 501 1078 539 1026 525 1057 b 401 1111 476 1100 447 1111 z m 347 60 l 347 1053 l 401 1053 b 451 1033 421 1051 440 1046 b 468 988 461 1022 468 1007 l 468 124 b 451 78 468 106 461 90 b 401 60 440 65 421 60 z "},"e":{"ha":778,"x_min":0,"x_max":0,"o":"m 500 1042 l 500 1113 l 278 1113 l 278 0 l 500 0 l 500 69 l 347 69 l 347 504 l 447 504 l 447 574 l 347 574 l 347 1042 z "},"é":{"ha":778,"x_min":0,"x_max":0,"o":"m 515 1318 l 447 1318 l 358 1188 l 425 1188 z m 278 1113 l 278 0 l 500 0 l 500 69 l 347 69 l 347 504 l 447 504 l 447 574 l 347 574 l 347 1042 l 500 1042 l 500 1113 z "},"ë":{"ha":778,"x_min":0,"x_max":0,"o":"m 340 1210 b 290 1260 340 1238 318 1260 b 240 1210 263 1260 240 1238 b 290 1160 240 1182 263 1160 b 340 1210 318 1160 340 1182 z m 478 1260 b 428 1210 450 1260 428 1238 b 478 1160 428 1182 450 1160 b 528 1210 506 1160 528 1182 b 478 1260 528 1238 506 1260 z m 278 1113 l 278 0 l 500 0 l 500 69 l 347 69 l 347 504 l 447 504 l 447 574 l 347 574 l 347 1042 l 500 1042 l 500 1113 z "},"è":{"ha":778,"x_min":0,"x_max":0,"o":"m 433 1188 l 344 1318 l 278 1318 l 367 1188 z m 500 1042 l 500 1113 l 278 1113 l 278 0 l 500 0 l 500 69 l 347 69 l 347 504 l 447 504 l 447 574 l 347 574 l 347 1042 z "},"f":{"ha":778,"x_min":0,"x_max":0,"o":"m 500 1113 l 278 1113 l 278 0 l 347 0 l 347 504 l 447 504 l 447 574 l 347 574 l 347 1042 l 500 1042 z "},"g":{"ha":817,"x_min":0,"x_max":0,"o":"m 539 682 l 539 997 b 499 1088 539 1036 522 1065 b 408 1121 474 1110 453 1121 b 350 1111 386 1121 368 1117 b 308 1088 333 1106 321 1097 b 283 1049 296 1076 289 1064 b 278 997 276 1035 278 1017 l 278 122 b 283 71 278 103 276 86 b 308 33 289 57 296 44 b 350 8 321 22 333 14 b 408 0 368 3 386 0 b 499 33 453 0 474 11 b 539 122 522 54 539 83 l 539 529 l 424 529 l 424 458 l 468 458 l 468 124 b 453 78 468 106 464 90 b 407 60 442 65 428 60 b 364 78 386 60 374 65 b 350 124 353 90 350 106 l 350 997 b 364 1042 350 1015 353 1031 b 407 1061 374 1054 386 1061 b 453 1042 428 1061 442 1054 b 468 997 464 1031 468 1015 l 468 682 z "},"h":{"ha":817,"x_min":0,"x_max":0,"o":"m 469 525 l 347 525 l 347 1113 l 278 1113 l 278 0 l 347 0 l 347 454 l 469 454 l 469 0 l 539 0 l 539 1113 l 469 1113 z "},"i":{"ha":625,"x_min":0,"x_max":0,"o":"m 278 0 l 278 1113 l 347 1113 l 347 0 z "},"í":{"ha":625,"x_min":0,"x_max":0,"o":"m 436 1318 l 346 1188 l 279 1188 l 368 1318 z m 278 0 l 278 1113 l 347 1113 l 347 0 z "},"ï":{"ha":625,"x_min":0,"x_max":0,"o":"m 271 1210 b 221 1160 271 1182 249 1160 b 171 1210 193 1160 171 1182 b 221 1260 171 1238 193 1260 b 271 1210 249 1260 271 1238 z m 458 1210 b 408 1160 458 1182 436 1160 b 358 1210 381 1160 358 1182 b 408 1260 358 1238 381 1260 b 458 1210 436 1260 458 1238 z m 278 0 l 278 1113 l 347 1113 l 347 0 z "},"ì":{"ha":717,"x_min":0,"x_max":0,"o":"m 278 1318 l 367 1188 l 433 1188 l 344 1318 z m 369 0 l 369 1113 l 439 1113 l 439 0 z "},"ĳ":{"ha":1442,"x_min":0,"x_max":0,"o":"m 278 0 l 278 1113 l 347 1113 l 347 0 z m 1164 117 b 1158 65 1164 97 1165 81 b 1133 28 1153 51 1146 39 b 1092 3 1122 17 1108 8 b 1033 -6 1075 -3 1056 -6 b 943 28 989 -6 968 6 b 903 117 919 49 903 78 l 903 503 l 975 503 l 975 118 b 989 72 975 100 978 85 b 1035 54 1000 60 1014 54 b 1078 72 1056 54 1068 60 b 1092 118 1089 85 1092 100 l 1092 1111 l 1164 1111 z "},"j":{"ha":817,"x_min":0,"x_max":0,"o":"m 539 117 b 533 65 539 97 540 81 b 508 28 528 51 521 39 b 467 3 497 17 483 8 b 408 -6 450 -3 431 -6 b 318 28 364 -6 343 6 b 278 117 294 49 278 78 l 278 503 l 350 503 l 350 118 b 364 72 350 100 353 85 b 410 54 375 60 389 54 b 453 72 431 54 443 60 b 467 118 464 85 467 100 l 467 1111 l 539 1111 z "},"k":{"ha":836,"x_min":0,"x_max":0,"o":"m 558 1113 l 489 1113 l 372 574 l 347 574 l 347 1113 l 278 1113 l 278 0 l 347 0 l 347 504 l 372 504 l 489 0 l 558 0 l 435 538 l 442 574 z "},"l":{"ha":775,"x_min":0,"x_max":0,"o":"m 347 1113 l 278 1113 l 278 0 l 497 0 l 497 69 l 347 69 z "},"ŀ":{"ha":775,"x_min":0,"x_max":0,"o":"m 347 69 l 347 376 b 386 440 371 389 386 413 b 347 506 386 469 371 493 l 347 1113 l 278 1113 l 278 507 b 236 440 253 496 236 469 b 278 375 236 411 253 386 l 278 0 l 497 0 l 497 69 z "},"m":{"ha":899,"x_min":0,"x_max":0,"o":"m 450 285 l 347 1113 l 278 1113 l 278 0 l 347 0 l 347 542 l 414 0 l 485 0 l 551 542 l 551 0 l 621 0 l 621 1113 l 551 1113 z "},"n":{"ha":817,"x_min":0,"x_max":0,"o":"m 469 408 l 347 1113 l 278 1113 l 278 0 l 347 0 l 347 704 l 469 0 l 539 0 l 539 1113 l 469 1113 z "},"ñ":{"ha":817,"x_min":0,"x_max":0,"o":"m 306 1164 l 513 1164 l 513 1221 l 306 1221 z m 469 408 l 347 1113 l 278 1113 l 278 0 l 347 0 l 347 704 l 469 0 l 539 0 l 539 1113 l 469 1113 z "},"o":{"ha":817,"x_min":0,"x_max":0,"o":"m 278 118 b 283 67 278 99 276 82 b 308 29 289 53 296 40 b 350 4 321 18 333 10 b 408 -4 368 -1 386 -4 b 499 29 453 -4 474 7 b 539 118 522 50 539 79 l 539 993 b 499 1083 539 1032 522 1061 b 408 1117 474 1106 453 1117 b 350 1107 386 1117 368 1114 b 308 1083 333 1101 321 1093 b 283 1044 296 1072 289 1060 b 278 993 276 1031 278 1013 z m 468 119 b 453 74 468 101 464 86 b 407 56 442 61 428 56 b 364 74 386 56 374 61 b 350 119 353 86 350 101 l 350 993 b 364 1038 350 1011 353 1026 b 407 1057 374 1050 386 1057 b 453 1038 428 1057 442 1050 b 468 993 464 1026 468 1011 z "},"ó":{"ha":817,"x_min":0,"x_max":0,"o":"m 544 1318 l 454 1188 l 388 1188 l 476 1318 z m 278 118 b 283 67 278 99 276 82 b 308 29 289 53 296 40 b 350 4 321 18 333 10 b 408 -4 368 -1 386 -4 b 499 29 453 -4 474 7 b 539 118 522 50 539 79 l 539 993 b 499 1083 539 1032 522 1061 b 408 1117 474 1106 453 1117 b 350 1107 386 1117 368 1114 b 308 1083 333 1101 321 1093 b 283 1044 296 1072 289 1060 b 278 993 276 1031 278 1013 z m 468 119 b 453 74 468 101 464 86 b 407 56 442 61 428 56 b 364 74 386 56 374 61 b 350 119 353 86 350 101 l 350 993 b 364 1038 350 1011 353 1026 b 407 1057 374 1050 386 1057 b 453 1038 428 1057 442 1050 b 468 993 464 1026 468 1011 z "},"ö":{"ha":817,"x_min":0,"x_max":0,"o":"m 367 1210 b 317 1160 367 1182 344 1160 b 267 1210 289 1160 267 1182 b 317 1260 267 1238 289 1260 b 367 1210 344 1260 367 1238 z m 554 1210 b 504 1160 554 1182 532 1160 b 454 1210 476 1160 454 1182 b 504 1260 454 1238 476 1260 b 554 1210 532 1260 554 1238 z m 278 118 b 283 67 278 99 276 82 b 308 29 289 53 296 40 b 350 4 321 18 333 10 b 408 -4 368 -1 386 -4 b 499 29 453 -4 474 7 b 539 118 522 50 539 79 l 539 993 b 499 1083 539 1032 522 1061 b 408 1117 474 1106 453 1117 b 350 1107 386 1117 368 1114 b 308 1083 333 1101 321 1093 b 283 1044 296 1072 289 1060 b 278 993 276 1031 278 1013 z m 468 119 b 453 74 468 101 464 86 b 407 56 442 61 428 56 b 364 74 386 56 374 61 b 350 119 353 86 350 101 l 350 993 b 364 1038 350 1011 353 1026 b 407 1057 374 1050 386 1057 b 453 1038 428 1057 442 1050 b 468 993 464 1026 468 1011 z "},"ò":{"ha":817,"x_min":0,"x_max":0,"o":"m 306 1318 l 394 1188 l 461 1188 l 372 1318 z m 278 118 b 283 67 278 99 276 82 b 308 29 289 53 296 40 b 350 4 321 18 333 10 b 408 -4 368 -1 386 -4 b 499 29 453 -4 474 7 b 539 118 522 50 539 79 l 539 993 b 499 1083 539 1032 522 1061 b 408 1117 474 1106 453 1117 b 350 1107 386 1117 368 1114 b 308 1083 333 1101 321 1093 b 283 1044 296 1072 289 1060 b 278 993 276 1031 278 1013 z m 468 119 b 453 74 468 101 464 86 b 407 56 442 61 428 56 b 364 74 386 56 374 61 b 350 119 353 86 350 101 l 350 993 b 364 1038 350 1011 353 1026 b 407 1057 374 1050 386 1057 b 453 1038 428 1057 442 1050 b 468 993 464 1026 468 1011 z "},"ø":{"ha":1014,"x_min":0,"x_max":0,"o":"m 736 817 l 685 863 l 639 803 l 639 997 b 599 1088 639 1036 622 1065 b 508 1121 575 1110 553 1121 b 450 1111 486 1121 468 1118 b 408 1088 433 1106 421 1097 b 383 1049 396 1076 389 1064 b 378 997 376 1035 378 1017 l 378 465 l 278 336 l 331 292 l 378 353 l 378 122 b 383 71 378 103 376 86 b 408 33 389 57 396 44 b 450 8 421 22 433 14 b 508 0 468 3 486 0 b 599 33 553 0 575 11 b 639 122 622 54 639 83 l 639 690 z m 450 997 b 464 1042 450 1015 454 1031 b 507 1061 474 1054 486 1061 b 553 1042 528 1061 543 1054 b 568 997 564 1031 568 1015 l 568 711 l 450 558 z m 568 124 b 553 78 568 106 564 90 b 507 60 543 65 528 60 b 464 78 486 60 474 65 b 450 124 454 90 450 106 l 450 446 l 568 599 z "},"õ":{"ha":817,"x_min":0,"x_max":0,"o":"m 513 1153 l 306 1153 l 306 1222 l 513 1222 z m 278 118 b 283 67 278 99 276 82 b 308 29 289 53 296 40 b 350 4 321 18 333 10 b 408 -4 368 -1 386 -4 b 499 29 453 -4 474 7 b 539 118 522 50 539 79 l 539 993 b 499 1083 539 1032 522 1061 b 408 1117 474 1106 453 1117 b 350 1107 386 1117 368 1114 b 308 1083 333 1101 321 1093 b 283 1044 296 1072 289 1060 b 278 993 276 1031 278 1013 z m 468 119 b 453 74 468 101 464 86 b 407 56 442 61 428 56 b 364 74 386 56 374 61 b 350 119 353 86 350 101 l 350 993 b 364 1038 350 1011 353 1026 b 407 1057 374 1050 386 1057 b 453 1038 428 1057 442 1050 b 468 993 464 1026 468 1011 z "},"p":{"ha":817,"x_min":0,"x_max":0,"o":"m 278 1111 l 278 0 l 347 0 l 347 504 l 401 504 b 501 538 447 504 476 515 b 539 628 525 560 539 589 l 539 988 b 501 1078 539 1026 525 1057 b 401 1111 476 1100 447 1111 z m 468 639 b 451 593 468 619 461 604 b 401 574 440 581 421 575 l 347 574 l 347 1053 l 401 1053 b 451 1033 421 1051 440 1046 b 468 988 461 1022 468 1007 z "},"q":{"ha":864,"x_min":0,"x_max":0,"o":"m 529 68 b 539 118 535 83 539 99 l 539 993 b 499 1082 539 1032 522 1061 b 408 1115 474 1104 453 1115 b 350 1107 386 1115 368 1113 b 308 1082 333 1101 321 1093 b 283 1044 296 1071 289 1058 b 278 993 276 1029 278 1013 l 278 118 b 283 67 278 99 276 81 b 308 29 289 51 296 39 b 350 4 321 18 333 10 b 408 -6 368 -1 386 -6 b 492 22 449 -6 471 4 l 550 -22 l 586 25 z m 350 992 b 364 1038 350 1010 353 1025 b 407 1056 374 1050 386 1056 b 453 1038 428 1056 442 1050 b 468 992 464 1025 468 1010 l 468 118 b 453 74 468 100 464 85 b 407 54 442 61 428 54 b 364 74 386 54 374 61 b 350 118 353 85 350 100 z "},"r":{"ha":817,"x_min":0,"x_max":0,"o":"m 539 988 b 501 1078 539 1026 525 1057 b 401 1111 476 1100 447 1111 l 278 1111 l 278 0 l 347 0 l 347 504 b 404 504 347 504 404 504 b 451 485 424 503 440 497 b 468 440 461 474 468 458 l 468 0 l 539 0 l 539 450 b 501 540 539 489 525 519 b 497 544 500 542 499 543 b 501 549 499 546 500 547 b 539 639 525 569 539 600 z m 401 1053 b 451 1033 421 1051 440 1046 b 468 988 461 1022 468 1007 l 468 639 b 451 593 468 619 461 604 b 401 574 440 581 421 575 l 347 574 l 347 1053 z "},"s":{"ha":858,"x_min":0,"x_max":0,"o":"m 581 982 b 543 1074 581 1021 567 1051 b 443 1107 518 1096 488 1107 b 382 1097 422 1107 400 1103 b 338 1072 365 1092 350 1083 b 310 1035 326 1063 317 1049 b 300 982 303 1019 300 1001 b 304 838 300 929 299 881 b 328 719 310 796 318 756 b 360 621 336 685 347 651 b 397 531 372 590 397 531 b 432 440 410 501 419 472 b 469 296 447 397 460 349 b 485 110 481 243 485 181 b 469 64 485 92 481 76 b 418 46 460 51 439 46 b 365 64 397 46 376 51 b 350 110 356 76 350 92 l 350 332 l 278 332 l 278 110 b 315 19 278 71 292 42 b 415 -14 340 -3 371 -14 b 476 -6 438 -14 458 -11 b 521 19 493 1 508 10 b 549 58 532 31 542 43 b 558 110 556 74 558 90 b 554 254 558 164 560 213 b 531 372 549 297 540 336 b 499 472 522 408 511 442 b 476 531 490 492 483 510 b 426 653 458 568 442 610 b 389 797 411 696 399 744 b 374 982 378 850 374 913 b 389 1028 374 1001 378 1017 b 440 1047 399 1040 419 1047 b 493 1028 461 1047 482 1040 b 510 982 503 1017 510 1001 l 510 761 l 581 761 z "},"t":{"ha":817,"x_min":0,"x_max":0,"o":"m 278 1111 l 278 1042 l 374 1042 l 374 0 l 443 0 l 443 1042 l 539 1042 l 539 1111 z "},"u":{"ha":817,"x_min":0,"x_max":0,"o":"m 468 121 b 453 75 468 103 464 88 b 407 57 442 63 428 57 b 364 75 386 57 374 63 b 350 121 353 88 350 103 l 350 1114 l 278 1114 l 278 119 b 283 68 278 100 276 83 b 308 31 289 54 296 42 b 350 6 321 19 333 11 b 408 -3 368 0 386 -3 b 499 31 453 -3 474 8 b 539 119 522 51 539 81 l 539 1114 l 468 1114 z "},"ú":{"ha":817,"x_min":0,"x_max":0,"o":"m 538 1318 l 447 1188 l 381 1188 l 469 1318 z m 468 121 b 453 75 468 103 464 88 b 407 57 442 63 428 57 b 364 75 386 57 374 63 b 350 121 353 88 350 103 l 350 1114 l 278 1114 l 278 119 b 283 68 278 100 276 83 b 308 31 289 54 296 42 b 350 6 321 19 333 11 b 408 -3 368 0 386 -3 b 499 31 453 -3 474 8 b 539 119 522 51 539 81 l 539 1114 l 468 1114 z "},"ü":{"ha":817,"x_min":0,"x_max":0,"o":"m 367 1210 b 317 1160 367 1182 344 1160 b 267 1210 289 1160 267 1182 b 317 1260 267 1238 289 1260 b 367 1210 344 1260 367 1238 z m 554 1210 b 504 1160 554 1182 532 1160 b 454 1210 476 1160 454 1182 b 504 1260 454 1238 476 1260 b 554 1210 532 1260 554 1238 z m 468 121 b 453 75 468 103 464 88 b 407 57 442 63 428 57 b 364 75 386 57 374 63 b 350 121 353 88 350 103 l 350 1114 l 278 1114 l 278 119 b 283 68 278 100 276 83 b 308 31 289 54 296 42 b 350 6 321 19 333 11 b 408 -3 368 0 386 -3 b 499 31 453 -3 474 8 b 539 119 522 51 539 81 l 539 1114 l 468 1114 z "},"ù":{"ha":817,"x_min":0,"x_max":0,"o":"m 301 1318 l 390 1188 l 457 1188 l 368 1318 z m 468 121 b 453 75 468 103 464 88 b 407 57 442 63 428 57 b 364 75 386 57 374 63 b 350 121 353 88 350 103 l 350 1114 l 278 1114 l 278 119 b 283 68 278 100 276 83 b 308 31 289 54 296 42 b 350 6 321 19 333 11 b 408 -3 368 0 386 -3 b 499 31 453 -3 474 8 b 539 119 522 51 539 81 l 539 1114 l 468 1114 z "},"v":{"ha":853,"x_min":0,"x_max":0,"o":"m 506 1113 l 426 339 l 347 1113 l 278 1113 l 392 0 l 461 0 l 575 1113 z "},"w":{"ha":1050,"x_min":0,"x_max":0,"o":"m 703 1113 l 626 364 l 560 1113 l 490 1113 l 424 364 l 347 1113 l 278 1113 l 392 0 l 461 0 l 525 721 l 589 0 l 658 0 l 772 1113 z "},"ẃ":{"ha":1050,"x_min":0,"x_max":0,"o":"m 642 1318 l 574 1318 l 485 1188 l 551 1188 z m 703 1113 l 626 364 l 560 1113 l 490 1113 l 424 364 l 347 1113 l 278 1113 l 392 0 l 461 0 l 525 721 l 589 0 l 658 0 l 772 1113 z "},"ẅ":{"ha":1050,"x_min":0,"x_max":0,"o":"m 431 1160 b 481 1210 458 1160 481 1182 b 431 1260 481 1238 458 1260 b 381 1210 403 1260 381 1238 b 431 1160 381 1182 403 1160 z m 618 1160 b 668 1210 646 1160 668 1182 b 618 1260 668 1238 646 1260 b 568 1210 590 1260 568 1238 b 618 1160 568 1182 590 1160 z m 703 1113 l 626 364 l 560 1113 l 490 1113 l 424 364 l 347 1113 l 278 1113 l 392 0 l 461 0 l 525 721 l 589 0 l 658 0 l 772 1113 z "},"ẁ":{"ha":1050,"x_min":0,"x_max":0,"o":"m 575 1188 l 486 1318 l 419 1318 l 508 1188 z m 703 1113 l 626 364 l 560 1113 l 490 1113 l 424 364 l 347 1113 l 278 1113 l 392 0 l 461 0 l 525 721 l 589 0 l 658 0 l 772 1113 z "},"x":{"ha":853,"x_min":0,"x_max":0,"o":"m 506 1113 l 426 726 l 347 1113 l 278 1113 l 392 556 l 278 0 l 347 0 l 426 385 l 506 0 l 575 0 l 461 556 l 575 1113 z "},"y":{"ha":853,"x_min":0,"x_max":0,"o":"m 506 1113 l 426 726 l 347 1113 l 278 1113 l 392 557 l 392 0 l 461 0 l 461 556 l 575 1113 z "},"ý":{"ha":853,"x_min":0,"x_max":0,"o":"m 544 1318 l 476 1318 l 388 1188 l 454 1188 z m 506 1113 l 426 726 l 347 1113 l 278 1113 l 392 557 l 392 0 l 461 0 l 461 556 l 575 1113 z "},"ÿ":{"ha":853,"x_min":0,"x_max":0,"o":"m 332 1160 b 382 1210 360 1160 382 1182 b 332 1260 382 1238 360 1260 b 282 1210 304 1260 282 1238 b 332 1160 282 1182 304 1160 z m 519 1160 b 569 1210 547 1160 569 1182 b 519 1260 569 1238 547 1260 b 469 1210 492 1260 469 1238 b 519 1160 469 1182 492 1160 z m 506 1113 l 426 726 l 347 1113 l 278 1113 l 392 557 l 392 0 l 461 0 l 461 556 l 575 1113 z "},"ỳ":{"ha":853,"x_min":0,"x_max":0,"o":"m 468 1188 l 379 1318 l 313 1318 l 401 1188 z m 506 1113 l 426 726 l 347 1113 l 278 1113 l 392 557 l 392 0 l 461 0 l 461 556 l 575 1113 z "},"z":{"ha":817,"x_min":0,"x_max":0,"o":"m 539 1113 l 278 1113 l 278 1042 l 457 1042 l 278 0 l 539 0 l 539 69 l 360 69 l 539 1111 z "},"⁄":{"ha":1265,"x_min":0,"x_max":0,"o":"m 278 0 l 918 1113 l 988 1113 l 347 0 z "},"*":{"ha":833,"x_min":0,"x_max":0,"o":"m 546 1033 l 483 1033 l 514 1088 l 474 1111 l 431 1033 l 342 1033 l 342 988 l 404 988 l 374 933 l 414 910 l 458 988 l 546 988 z "},"\\":{"ha":924,"x_min":0,"x_max":0,"o":"m 576 0 l 278 1113 l 347 1113 l 646 0 z "},":":{"ha":657,"x_min":0,"x_max":0,"o":"m 379 878 b 328 828 379 850 356 828 b 278 878 300 828 278 850 b 328 928 278 906 300 928 b 379 878 356 928 379 906 z m 379 164 b 328 114 379 136 356 114 b 278 164 300 114 278 136 b 328 214 278 192 300 214 b 379 164 356 214 379 192 z "},",":{"ha":679,"x_min":0,"x_max":0,"o":"m 401 50 b 351 100 401 78 379 100 b 300 50 324 100 300 78 b 326 7 300 31 311 15 b 322 -1 325 4 324 1 b 278 -58 303 -35 278 -58 b 390 18 278 -58 354 -39 b 401 50 397 28 401 38 z "},"…":{"ha":0,"x_min":0,"x_max":0,"o":"m 328 100 b 278 50 300 100 278 78 b 328 0 278 22 300 0 b 378 50 356 0 378 22 b 328 100 378 78 356 100 z "},"!":{"ha":651,"x_min":0,"x_max":0,"o":"m 360 1113 l 360 185 l 292 185 l 292 1113 z m 278 44 b 325 93 278 71 299 93 b 374 44 353 93 374 71 b 325 -4 374 18 353 -4 b 278 44 299 -4 278 18 z "},"¡":{"ha":653,"x_min":0,"x_max":0,"o":"m 375 1014 b 326 965 375 988 353 965 b 278 1014 300 965 278 988 b 326 1063 278 1040 300 1063 b 375 1014 353 1063 375 1040 z m 293 -54 l 293 872 l 360 872 l 360 -54 z "},"#":{"ha":1057,"x_min":0,"x_max":0,"o":"m 779 664 l 653 664 l 729 1113 l 660 1113 l 582 664 l 513 664 l 589 1113 l 519 1113 l 442 664 l 303 664 l 303 597 l 431 597 l 414 504 l 278 504 l 278 436 l 403 436 l 328 0 l 397 0 l 474 436 l 543 436 l 468 0 l 539 0 l 614 436 l 754 436 l 754 504 l 625 504 l 640 597 l 779 597 z m 485 504 l 500 597 l 571 597 l 554 504 z "},".":{"ha":656,"x_min":0,"x_max":0,"o":"m 378 50 b 328 0 378 22 356 0 b 278 50 300 0 278 22 b 328 100 278 78 300 100 b 378 50 356 100 378 78 z "},"·":{"ha":697,"x_min":0,"x_max":0,"o":"m 419 403 b 349 332 419 364 388 332 b 278 403 310 332 278 364 b 349 474 278 442 310 474 b 419 403 388 474 419 442 z "},"?":{"ha":817,"x_min":0,"x_max":0,"o":"m 350 989 b 364 1035 350 1007 353 1022 b 410 1053 375 1047 389 1053 b 453 1035 431 1053 443 1047 b 467 989 464 1022 467 1007 b 467 625 467 989 467 694 b 390 428 467 557 390 524 b 390 185 390 331 390 185 l 461 185 b 461 415 461 185 461 324 b 539 603 461 507 539 538 b 539 990 539 668 539 990 b 533 1042 539 1010 540 1026 b 508 1079 528 1056 521 1068 b 467 1104 497 1090 483 1099 b 408 1113 450 1110 431 1113 b 318 1079 364 1113 343 1101 b 278 990 294 1058 278 1029 l 278 604 l 350 604 z m 474 44 b 425 -4 474 18 453 -4 b 376 44 399 -4 376 18 b 425 93 376 71 399 93 b 474 44 453 93 474 71 z "},"¿":{"ha":817,"x_min":0,"x_max":0,"o":"m 343 1014 b 390 1063 343 1040 364 1063 b 439 1014 418 1063 439 1040 b 390 965 439 988 418 965 b 343 1014 364 965 343 988 z m 467 69 b 453 24 467 51 463 36 b 407 6 442 11 426 6 b 363 24 386 6 374 11 b 349 69 353 36 349 51 b 349 433 349 69 349 364 b 426 631 349 503 426 535 b 426 874 426 728 426 874 l 356 874 b 356 643 356 874 356 735 b 278 456 356 551 278 521 b 278 68 278 390 278 68 b 282 17 278 49 276 32 b 308 -21 289 3 296 -10 b 350 -46 319 -32 333 -40 b 408 -54 367 -51 386 -54 b 497 -21 453 -54 474 -43 b 539 68 522 0 539 29 l 539 454 l 467 454 z "},"\"":{"ha":682,"x_min":0,"x_max":0,"o":"m 278 1057 l 278 1192 l 328 1192 l 328 1057 z m 354 1057 l 354 1192 l 404 1192 l 404 1057 z "},"'":{"ha":606,"x_min":0,"x_max":0,"o":"m 278 1057 l 278 1192 l 328 1192 l 328 1057 z "},";":{"ha":679,"x_min":0,"x_max":0,"o":"m 351 713 b 401 764 379 713 401 736 b 351 814 401 792 379 814 b 300 764 324 814 300 792 b 351 713 300 736 324 713 z m 351 100 b 300 50 324 100 300 78 b 326 7 300 31 311 15 b 322 -1 325 4 324 1 b 278 -58 303 -35 278 -58 b 390 18 278 -58 354 -39 b 401 50 397 28 401 38 b 351 100 401 78 379 100 z "},"/":{"ha":817,"x_min":0,"x_max":0,"o":"m 278 0 l 469 1113 l 539 1113 l 347 0 z "},"_":{"ha":850,"x_min":0,"x_max":0,"o":"m 278 67 l 572 67 l 572 0 l 278 0 z "},"[":{"ha":686,"x_min":0,"x_max":0,"o":"m 408 1099 l 408 1172 l 278 1172 l 278 -51 l 408 -51 l 408 22 l 351 22 l 351 1099 z "},"]":{"ha":686,"x_min":0,"x_max":0,"o":"m 278 1171 l 278 1097 l 336 1097 l 336 21 l 278 21 l 278 -53 l 408 -53 l 408 1171 z "},"(":{"ha":686,"x_min":0,"x_max":0,"o":"m 350 1047 b 364 1093 350 1065 354 1081 b 407 1111 375 1106 386 1111 b 408 1171 408 1171 407 1111 b 351 1163 388 1171 368 1168 b 308 1138 335 1157 321 1149 b 283 1100 297 1126 290 1114 b 278 1049 278 1085 278 1068 l 278 71 b 283 19 278 51 278 35 b 308 -18 290 4 297 -8 b 351 -43 321 -29 335 -37 b 408 -51 368 -49 388 -51 b 407 7 407 7 408 -51 b 364 26 386 7 375 14 b 350 72 354 39 350 54 z "},")":{"ha":688,"x_min":0,"x_max":0,"o":"m 338 71 b 324 25 338 53 335 38 b 278 7 313 13 299 7 b 279 -53 279 -53 278 7 b 369 -19 324 -53 344 -42 b 410 69 393 1 410 31 l 410 1047 b 369 1138 410 1086 393 1115 b 279 1169 344 1158 324 1169 b 278 1111 278 1111 279 1169 b 324 1092 299 1111 313 1104 b 338 1046 335 1081 338 1065 z "},"—":{"ha":1192,"x_min":0,"x_max":0,"o":"m 278 571 l 914 571 l 914 504 l 278 504 z "},"–":{"ha":951,"x_min":0,"x_max":0,"o":"m 278 571 l 674 571 l 674 504 l 278 504 z "},"-":{"ha":850,"x_min":0,"x_max":0,"o":"m 278 571 l 572 571 l 572 504 l 278 504 z "},"«":{"ha":889,"x_min":0,"x_max":0,"o":"m 457 261 l 349 478 l 456 694 l 386 694 l 278 478 l 386 261 z m 611 261 l 503 478 l 610 694 l 540 694 l 432 478 l 540 261 z "},"»":{"ha":889,"x_min":0,"x_max":0,"o":"m 278 694 l 386 478 l 279 261 l 349 261 l 457 478 l 349 694 z m 432 694 l 540 478 l 433 261 l 503 261 l 611 478 l 503 694 z "},"‹":{"ha":735,"x_min":0,"x_max":0,"o":"m 457 261 l 349 478 l 456 694 l 386 694 l 278 478 l 386 261 z "},"›":{"ha":735,"x_min":0,"x_max":0,"o":"m 278 694 l 386 478 l 279 261 l 349 261 l 457 478 l 349 694 z "},"„":{"ha":833,"x_min":0,"x_max":0,"o":"m 401 50 b 351 100 401 78 379 100 b 300 50 324 100 300 78 b 326 7 300 31 311 15 b 322 -1 325 4 324 1 b 278 -58 303 -35 278 -58 b 390 18 278 -58 354 -39 b 401 50 397 28 401 38 z "},"‘":{"ha":606,"x_min":0,"x_max":0,"o":"m 278 1057 l 278 1192 l 328 1192 l 328 1057 z "},"’":{"ha":606,"x_min":0,"x_max":0,"o":"m 278 1057 l 278 1192 l 328 1192 l 328 1057 z "},"‚":{"ha":833,"x_min":0,"x_max":0,"o":"m 401 50 b 351 100 401 78 379 100 b 300 50 324 100 300 78 b 326 7 300 31 311 15 b 322 -1 325 4 324 1 b 278 -58 303 -35 278 -58 b 390 18 278 -58 354 -39 b 401 50 397 28 401 38 z "},"$":{"ha":847,"x_min":0,"x_max":0,"o":"m 458 1110 b 485 1093 469 1107 478 1101 b 499 1047 494 1081 499 1065 l 499 825 l 569 825 l 569 1049 b 565 1100 569 1068 571 1085 b 540 1138 558 1114 551 1126 b 497 1163 528 1149 514 1156 b 458 1169 486 1167 472 1168 l 458 1221 l 389 1221 l 389 1169 b 350 1163 375 1168 361 1167 b 307 1138 333 1156 319 1149 b 282 1100 296 1126 289 1114 b 278 1049 276 1085 278 1068 l 278 861 b 278 831 278 861 276 847 l 278 818 b 282 778 278 804 279 788 b 304 711 288 754 294 731 b 336 654 314 690 325 671 b 374 601 349 636 374 601 b 389 585 376 599 382 592 l 389 113 b 363 129 378 115 369 121 b 349 174 353 140 349 156 l 349 396 l 278 396 l 278 203 b 283 122 278 183 276 138 b 307 83 290 108 296 94 b 350 60 319 74 333 65 b 389 51 361 56 375 53 l 389 0 l 458 0 l 458 51 b 497 60 472 53 486 56 b 540 83 514 65 528 74 b 564 122 551 94 558 108 b 569 382 571 138 569 363 b 565 443 571 404 569 425 b 544 511 560 468 554 490 b 507 563 535 531 518 544 b 458 615 503 568 481 592 z m 349 1047 b 363 1093 349 1065 353 1081 b 389 1110 369 1101 378 1107 l 389 707 b 365 754 379 722 371 738 b 349 861 356 785 349 821 z m 458 504 b 483 467 471 489 481 475 b 499 361 493 436 499 400 l 499 174 b 485 129 499 156 494 140 b 458 113 478 121 469 115 z "},"≈":{"ha":833,"x_min":0,"x_max":0,"o":""},"~":{"ha":833,"x_min":0,"x_max":0,"o":""},"÷":{"ha":833,"x_min":0,"x_max":0,"o":""},"∅":{"ha":833,"x_min":0,"x_max":0,"o":""},"=":{"ha":951,"x_min":0,"x_max":0,"o":"m 278 640 l 674 640 l 674 574 l 278 574 z m 278 494 l 674 494 l 674 428 l 278 428 z "},">":{"ha":833,"x_min":0,"x_max":0,"o":""},"≥":{"ha":833,"x_min":0,"x_max":0,"o":""},"∞":{"ha":833,"x_min":0,"x_max":0,"o":""},"∫":{"ha":833,"x_min":0,"x_max":0,"o":""},"<":{"ha":833,"x_min":0,"x_max":0,"o":""},"≤":{"ha":833,"x_min":0,"x_max":0,"o":""},"¬":{"ha":833,"x_min":0,"x_max":0,"o":""},"−":{"ha":951,"x_min":0,"x_max":0,"o":"m 278 571 l 674 571 l 674 504 l 278 504 z "},"×":{"ha":833,"x_min":0,"x_max":0,"o":""},"≠":{"ha":833,"x_min":0,"x_max":0,"o":"m 674 574 l 674 640 l 457 640 l 539 1113 l 469 1113 l 388 640 l 278 640 l 278 574 l 376 574 l 363 494 l 278 494 l 278 428 l 351 428 l 278 0 l 347 0 l 421 428 l 674 428 l 674 494 l 432 494 l 446 574 z "},"∂":{"ha":833,"x_min":0,"x_max":0,"o":""},"%":{"ha":1132,"x_min":0,"x_max":0,"o":"m 278 -28 l 785 1140 l 854 1140 l 347 -28 z m 447 985 b 376 914 447 946 415 914 b 306 985 338 914 306 946 b 376 1057 306 1025 338 1057 b 447 985 415 1057 447 1025 z m 826 126 b 756 56 826 88 794 56 b 685 126 717 56 685 88 b 756 197 685 165 717 197 b 826 126 794 197 826 165 z "},"‰":{"ha":833,"x_min":0,"x_max":0,"o":""},"+":{"ha":951,"x_min":0,"x_max":0,"o":"m 510 571 l 510 736 l 443 736 l 443 571 l 278 571 l 278 504 l 443 504 l 443 340 l 510 340 l 510 504 l 674 504 l 674 571 z "},"±":{"ha":833,"x_min":0,"x_max":0,"o":""},"∏":{"ha":833,"x_min":0,"x_max":0,"o":""},"√":{"ha":833,"x_min":0,"x_max":0,"o":""},"∑":{"ha":833,"x_min":0,"x_max":0,"o":""},"&":{"ha":872,"x_min":0,"x_max":0,"o":"m 519 465 b 519 456 519 464 519 460 b 515 306 519 432 521 372 b 458 481 496 367 476 428 b 424 565 446 515 435 542 b 438 585 428 572 432 578 b 539 840 488 658 539 736 l 539 994 b 421 1122 538 1065 485 1122 l 396 1122 b 279 1013 338 1122 289 1075 l 279 840 l 278 840 b 339 574 281 694 307 642 b 342 571 340 574 340 572 b 278 378 307 514 278 453 b 278 119 278 324 278 125 b 279 107 278 114 279 110 b 282 96 281 104 281 100 l 282 94 b 339 18 293 60 313 33 b 383 3 349 13 364 4 l 386 1 l 388 1 b 394 1 389 1 392 1 b 421 3 408 1 415 1 b 511 54 456 7 486 25 b 522 0 519 21 522 6 l 594 0 b 560 153 594 24 578 90 b 578 225 567 175 572 199 b 592 457 594 322 592 424 b 592 465 592 461 592 464 z m 421 1050 b 467 992 446 1050 467 1024 l 467 840 b 388 640 467 764 429 703 b 350 842 365 689 351 736 l 350 992 b 396 1050 350 1024 371 1050 z m 413 74 b 396 74 408 74 400 74 b 390 74 393 74 392 74 b 375 81 386 75 382 76 b 351 114 365 88 357 99 b 351 118 351 115 351 117 b 350 125 351 119 351 122 b 350 378 350 165 350 324 b 378 489 350 418 361 454 b 389 457 382 479 386 468 b 481 171 419 371 453 267 b 485 154 482 165 483 160 b 413 74 463 96 435 78 z "},"@":{"ha":1018,"x_min":0,"x_max":0,"o":"m 483 1153 b 278 947 371 1153 278 1061 l 278 165 b 483 -40 278 53 371 -40 l 535 -40 b 649 -6 575 -40 615 -28 l 611 50 b 535 26 589 35 563 26 l 483 26 b 344 165 407 26 344 89 l 344 947 b 483 1086 344 1024 407 1086 l 535 1086 b 674 947 611 1086 674 1024 l 674 233 b 663 194 674 214 669 199 b 647 192 657 190 649 192 b 619 236 629 200 619 218 l 619 878 b 522 985 619 936 575 985 l 504 985 b 407 878 450 985 407 936 l 407 231 b 504 124 407 172 450 124 l 522 124 b 589 153 547 124 571 135 b 619 131 597 144 608 136 b 699 138 636 124 669 119 b 740 233 733 160 740 203 l 740 947 b 535 1153 740 1061 649 1153 z m 504 190 b 474 231 488 190 474 208 l 474 878 b 504 918 474 900 488 918 l 522 918 b 553 878 539 918 553 900 l 553 231 b 522 190 553 208 539 190 z "},"|":{"ha":625,"x_min":0,"x_max":0,"o":"m 278 -97 l 278 1222 l 347 1222 l 347 -97 z "},"¦":{"ha":625,"x_min":0,"x_max":0,"o":"m 278 683 l 278 1224 l 347 1224 l 347 683 z m 278 -97 l 278 443 l 347 443 l 347 -97 z "},"´":{"ha":713,"x_min":0,"x_max":0,"o":"m 435 1318 l 344 1188 l 278 1188 l 367 1318 z "},"¸":{"ha":833,"x_min":0,"x_max":0,"o":"m 433 33 l 382 33 l 382 -62 l 407 -62 b 431 -86 419 -62 431 -72 b 407 -108 431 -99 419 -108 l 382 -108 l 382 -158 b 407 -162 390 -161 399 -162 b 485 -86 450 -162 485 -128 b 433 -12 485 -51 463 -24 z "},"¨":{"ha":833,"x_min":0,"x_max":0,"o":"m 367 1210 b 317 1160 367 1182 344 1160 b 267 1210 289 1160 267 1182 b 317 1260 267 1238 289 1260 b 367 1210 344 1260 367 1238 z m 554 1210 b 504 1160 554 1182 532 1160 b 454 1210 476 1160 454 1182 b 504 1260 454 1238 476 1260 b 554 1210 532 1260 554 1238 z "},"`":{"ha":711,"x_min":0,"x_max":0,"o":"m 278 1318 l 367 1188 l 433 1188 l 344 1318 z "},"˝":{"ha":682,"x_min":0,"x_max":0,"o":"m 278 1057 l 278 1192 l 328 1192 l 328 1057 z m 354 1057 l 354 1192 l 404 1192 l 404 1057 z "},"¯":{"ha":951,"x_min":0,"x_max":0,"o":"m 278 972 l 674 972 l 674 906 l 278 906 z "},"˜":{"ha":833,"x_min":0,"x_max":0,"o":"m 513 1153 l 306 1153 l 306 1222 l 513 1222 z "}," ":{"ha":556,"x_min":0,"x_max":0,"o":""}}}
